<svg width="18" height="18" viewBox="0 0 18 18" fill="none" xmlns="http://www.w3.org/2000/svg">
<g clip-path="url(#clip0_87:145)">
<path fill-rule="evenodd" clip-rule="evenodd" d="M0 8.74237C0 12.6048 2.46582 15.8811 5.88584 17.0371C6.31645 17.1176 6.47339 16.8477 6.47339 16.6159C6.47339 16.4087 6.466 15.8586 6.46177 15.1293C4.06781 15.6574 3.5627 13.9572 3.5627 13.9572C3.17119 12.9472 2.60689 12.6783 2.60689 12.6783C1.82546 12.1363 2.66608 12.147 2.66608 12.147C3.52993 12.2087 3.9843 13.0481 3.9843 13.0481C4.752 14.3839 5.99893 13.998 6.48924 13.7742C6.56743 13.2096 6.78986 12.8243 7.03553 12.6059C5.12449 12.3853 3.11517 11.635 3.11517 8.28512C3.11517 7.33092 3.45067 6.55009 4.00122 5.93935C3.91245 5.71825 3.61711 4.82896 4.08576 3.62574C4.08576 3.62574 4.80801 3.39069 6.45224 4.52199C7.13858 4.32772 7.87511 4.23109 8.60688 4.22733C9.33812 4.23109 10.0741 4.32772 10.7615 4.52199C12.4047 3.39069 13.1259 3.62574 13.1259 3.62574C13.5956 4.82896 13.3002 5.71825 13.212 5.93935C13.7636 6.55009 14.0965 7.33092 14.0965 8.28512C14.0965 11.6436 12.084 12.3826 10.1671 12.5989C10.4757 12.8688 10.7509 13.4023 10.7509 14.218C10.7509 15.3863 10.7404 16.3293 10.7404 16.6159C10.7404 16.8499 10.8957 17.1219 11.3321 17.0366C14.7495 15.8779 17.2132 12.6037 17.2132 8.74237C17.2132 3.91394 13.3594 0 8.60581 0C3.8538 0 0 3.91394 0 8.74237Z" fill="currentColor"/>
</g>
<defs>
<clipPath id="clip0_87:145">
<rect width="18" height="17.0526" fill="currentColor"/>
</clipPath>
</defs>
</svg>
