<svg width="15" height="15" viewBox="0 0 15 15" fill="none" xmlns="http://www.w3.org/2000/svg">
<g clip-path="url(#clip0_87:150)">
<path fill-rule="evenodd" clip-rule="evenodd" d="M14.3917 14.0545H11.3356V9.1581C11.3356 7.87646 10.8575 7.00152 9.80628 7.00152C9.00221 7.00152 8.55506 7.59195 8.34692 8.16097C8.26888 8.36521 8.28107 8.64883 8.28107 8.93424V14.0545H5.25342C5.25342 14.0545 5.29244 5.38096 5.25342 4.59254H8.28107V6.07753C8.45993 5.42824 9.42742 4.50156 10.9713 4.50156C12.8868 4.50156 14.3917 5.86258 14.3917 8.79332V14.0545ZM2.19161 3.40811H2.1721C1.19649 3.40811 0.563965 2.6848 0.563965 1.76883C0.563965 0.834133 1.21518 0.125977 2.21031 0.125977C3.20462 0.125977 3.81601 0.83235 3.83552 1.76615C3.83552 2.68301 3.20462 3.40811 2.19161 3.40811ZM0.912747 14.0545H3.60789V4.59254H0.912747V14.0545Z" fill="currentColor"/>
</g>
<defs>
<clipPath id="clip0_87:150">
<rect width="14.5231" height="14.1176" fill="currentColor" transform="translate(0.138672)"/>
</clipPath>
</defs>
</svg>
