<svg width="94" height="68" viewBox="0 0 94 68" fill="none" xmlns="http://www.w3.org/2000/svg">
<path d="M59.5249 12.584H57.0249C57.0249 13.9647 58.1442 15.084 59.5249 15.084V12.584ZM73.2404 12.584H75.7404C75.7404 11.2033 74.6211 10.084 73.2404 10.084V12.584ZM73.2404 26.4415L73.0916 28.937C73.7792 28.9781 74.4533 28.7335 74.9547 28.2611C75.4561 27.7887 75.7404 27.1304 75.7404 26.4415H73.2404ZM73.2404 42.3774H75.7404C75.7404 41.6886 75.4561 41.0302 74.9547 40.5578C74.4533 40.0854 73.7792 39.8409 73.0916 39.8819L73.2404 42.3774ZM73.2404 55.174V57.674C74.6211 57.674 75.7404 56.5547 75.7404 55.174H73.2404ZM58.4614 55.174V52.674C57.0808 52.674 55.9616 53.7931 55.9614 55.1736L58.4614 55.174ZM39.2959 55.174L41.7959 55.1736C41.7957 53.7931 40.6765 52.674 39.2959 52.674V55.174ZM26 55.174H23.5C23.5 56.5547 24.6193 57.674 26 57.674V55.174ZM26 43.444H28.5C28.5 42.1214 27.4699 41.0277 26.1497 40.9485L26 43.444ZM26 24.3133L26.1497 26.8088C27.4699 26.7296 28.5 25.6359 28.5 24.3133H26ZM26 12.584V10.084C24.6193 10.084 23.5 11.2033 23.5 12.584H26ZM40.3594 12.584V15.084C41.7401 15.084 42.8594 13.9647 42.8594 12.584H40.3594ZM62.0249 12.584V12.5828H57.0249V12.584H62.0249ZM73.2404 10.084H59.5249V15.084H73.2404V10.084ZM75.7404 26.4415V12.584H70.7404V26.4415H75.7404ZM72.6469 28.9238C72.7967 28.9238 72.9449 28.9283 73.0916 28.937L73.3892 23.9459C73.1436 23.9313 72.896 23.9238 72.6469 23.9238V28.9238ZM66.2893 34.4095C66.2893 31.6172 68.8857 28.9238 72.6469 28.9238V23.9238C66.6243 23.9238 61.2893 28.381 61.2893 34.4095H66.2893ZM72.6469 39.8951C68.8857 39.8951 66.2893 37.2017 66.2893 34.4095H61.2893C61.2893 40.4379 66.6243 44.8951 72.6469 44.8951V39.8951ZM73.0916 39.8819C72.9449 39.8906 72.7967 39.8951 72.6469 39.8951V44.8951C72.896 44.8951 73.1436 44.8877 73.3892 44.873L73.0916 39.8819ZM75.7404 55.174V42.3774H70.7404V55.174H75.7404ZM58.4614 57.674H73.2404V52.674H58.4614V57.674ZM48.8787 67.2554C55.5512 67.2554 60.9605 61.8467 60.9614 55.1743L55.9614 55.1736C55.9609 59.0848 52.79 62.2554 48.8787 62.2554V67.2554ZM36.7959 55.1743C36.7968 61.8467 42.2061 67.2554 48.8787 67.2554V62.2554C44.9673 62.2554 41.7965 59.0849 41.7959 55.1736L36.7959 55.1743ZM26 57.674H39.2959V52.674H26V57.674ZM23.5 43.444V55.174H28.5V43.444H23.5ZM26.1497 40.9485C22.4409 40.726 19.5 37.6448 19.5 33.8787H14.5C14.5 40.306 19.517 45.5596 25.8503 45.9395L26.1497 40.9485ZM19.5 33.8787C19.5 30.1125 22.4409 27.0313 26.1497 26.8088L25.8503 21.8178C19.517 22.1977 14.5 27.4514 14.5 33.8787H19.5ZM23.5 12.584V24.3133H28.5V12.584H23.5ZM40.3594 10.084H26V15.084H40.3594V10.084ZM37.8594 12.5828V12.584H42.8594V12.5828H37.8594ZM49.9421 0.5C43.269 0.5 37.8594 5.90963 37.8594 12.5828H42.8594C42.8594 8.67106 46.0304 5.5 49.9421 5.5V0.5ZM62.0249 12.5828C62.0249 5.90963 56.6153 0.5 49.9421 0.5V5.5C53.8538 5.5 57.0249 8.67106 57.0249 12.5828H62.0249Z" fill="#0043F5"/>
</svg>
