<svg width="16" height="13" viewBox="0 0 16 13" fill="none" xmlns="http://www.w3.org/2000/svg">
<g clip-path="url(#clip0_87:158)">
<path d="M14.1776 3.61272C14.1776 3.4726 14.1748 3.33309 14.1685 3.19423C14.8008 2.73727 15.3503 2.16715 15.7838 1.518C15.2036 1.77583 14.5792 1.94935 13.9242 2.02762C14.5927 1.62683 15.106 0.992932 15.3482 0.23713C14.7225 0.607937 14.0296 0.877372 13.2919 1.02288C12.7009 0.393633 11.8596 0 10.9281 0C9.13977 0 7.68959 1.44976 7.68959 3.23685C7.68959 3.49089 7.71799 3.73798 7.77355 3.97499C5.08213 3.83961 2.69559 2.5514 1.09837 0.592599C0.820262 1.07102 0.659901 1.62689 0.659901 2.21987C0.659901 3.34302 1.23159 4.33439 2.10096 4.91445C1.56967 4.89803 1.07059 4.75224 0.634369 4.50956C0.633893 4.52314 0.633887 4.5363 0.633887 4.55082C0.633887 6.11864 1.75011 7.42802 3.23186 7.72464C2.95975 7.7988 2.67345 7.83845 2.37796 7.83845C2.16962 7.83845 1.96665 7.81784 1.76935 7.77996C2.18162 9.06625 3.37712 10.0022 4.79446 10.0284C3.68612 10.8969 2.28988 11.414 0.77243 11.414C0.511366 11.414 0.253475 11.3995 0 11.3696C1.43318 12.2879 3.13494 12.8236 4.96398 12.8236C10.9203 12.8238 14.1776 7.89059 14.1776 3.61272Z" fill="currentColor"/>
</g>
<defs>
<clipPath id="clip0_87:158">
<rect width="15.7857" height="13" fill="currentColor"/>
</clipPath>
</defs>
</svg>
